<svg xmlns="http://www.w3.org/2000/svg" viewBox="0 0 32 32">
  <!-- Receipt with tear at bottom -->
  <path d="M6 4 L26 4 L26 28 L24 26 L22 28 L20 26 L18 28 L16 26 L14 28 L12 26 L10 28 L8 26 L6 28 Z" fill="#faf9f6" stroke="#2c2c2c" stroke-width="1.5"/>

  <!-- Receipt lines -->
  <line x1="9" y1="9" x2="23" y2="9" stroke="#2c2c2c" stroke-width="1.3" stroke-linecap="round"/>
  <line x1="9" y1="13" x2="20" y2="13" stroke="#2c2c2c" stroke-width="1.3" stroke-linecap="round"/>
  <line x1="9" y1="17" x2="21" y2="17" stroke="#2c2c2c" stroke-width="1.3" stroke-linecap="round"/>
  <line x1="9" y1="21" x2="18" y2="21" stroke="#2c2c2c" stroke-width="1.3" stroke-linecap="round"/>

  <!-- Scan line effect -->
  <line x1="5" y1="16" x2="27" y2="16" stroke="#d4380d" stroke-width="2" stroke-linecap="round" opacity="0.9"/>

  <!-- Corner brackets (scanner frame) -->
  <path d="M3 8 L3 3 L8 3" fill="none" stroke="#d4380d" stroke-width="2" stroke-linecap="round"/>
  <path d="M24 3 L29 3 L29 8" fill="none" stroke="#d4380d" stroke-width="2" stroke-linecap="round"/>
  <path d="M29 24 L29 29 L24 29" fill="none" stroke="#d4380d" stroke-width="2" stroke-linecap="round"/>
  <path d="M8 29 L3 29 L3 24" fill="none" stroke="#d4380d" stroke-width="2" stroke-linecap="round"/>
</svg>
